<svg xmlns="http://www.w3.org/2000/svg" xmlns:xlink="http://www.w3.org/1999/xlink" viewBox="0,0,256,256" width="500px" height="500px"><g fill="#ffffff" fill-rule="nonzero" stroke="none" stroke-width="1" stroke-linecap="butt" stroke-linejoin="miter" stroke-miterlimit="10" stroke-dasharray="" stroke-dashoffset="0" font-family="none" font-weight="none" font-size="none" text-anchor="none" style="mix-blend-mode: normal"><path d="M0,256v-256h256v256z" id="bgRectangle"></path></g><g fill="none" fill-rule="nonzero" stroke="none" stroke-width="1" stroke-linecap="butt" stroke-linejoin="miter" stroke-miterlimit="10" stroke-dasharray="" stroke-dashoffset="0" font-family="none" font-weight="none" font-size="none" text-anchor="none" style="mix-blend-mode: normal"><g transform="scale(2.56,2.56)"><path d="M13,27c-1.105,0 -2,0.895 -2,2c0,1.105 0.895,2 2,2c1.105,0 2,-0.895 2,-2c0,-1.105 -0.895,-2 -2,-2z" fill="#ee3e54"></path><path d="M77,12c-0.551,0 -1,0.449 -1,1c0,0.551 0.449,1 1,1c0.551,0 1,-0.449 1,-1c0,-0.551 -0.449,-1 -1,-1z" fill="#f1bc19"></path><path d="M50,13c-20.434,0 -37,16.566 -37,37c0,20.434 16.566,37 37,37c20.434,0 37,-16.566 37,-37c0,-20.434 -16.566,-37 -37,-37z" fill="#fce0a2"></path><path d="M83,11c-2.211,0 -4,1.789 -4,4c0,2.211 1.789,4 4,4c2.211,0 4,-1.789 4,-4c0,-2.211 -1.789,-4 -4,-4z" fill="#f1bc19"></path><path d="M87,22c-1.105,0 -2,0.895 -2,2c0,1.105 0.895,2 2,2c1.105,0 2,-0.895 2,-2c0,-1.105 -0.895,-2 -2,-2z" fill="#ee3e54"></path><path d="M81,74c-1.105,0 -2,0.895 -2,2c0,1.105 0.895,2 2,2c1.105,0 2,-0.895 2,-2c0,-1.105 -0.895,-2 -2,-2zM15,59c-2.211,0 -4,1.789 -4,4c0,2.211 1.789,4 4,4c2.211,0 4,-1.789 4,-4c0,-2.211 -1.789,-4 -4,-4z" fill="#fbcd59"></path><path d="M25,85c-1.105,0 -2,0.895 -2,2c0,1.105 0.895,2 2,2c1.105,0 2,-0.895 2,-2c0,-1.105 -0.895,-2 -2,-2z" fill="#ee3e54"></path><path d="M21.5,34c-1.379,0 -2.5,1.121 -2.5,2.5c0,1.379 1.121,2.5 2.5,2.5c1.379,0 2.5,-1.121 2.5,-2.5c0,-1.379 -1.121,-2.5 -2.5,-2.5z" fill="#ffffff"></path><path d="M21,66c-0.551,0 -1,0.449 -1,1c0,0.551 0.449,1 1,1c0.551,0 1,-0.449 1,-1c0,-0.551 -0.449,-1 -1,-1z" fill="#f1bc19"></path><path d="M80,33c-0.551,0 -1,0.449 -1,1c0,0.551 0.449,1 1,1c0.551,0 1,-0.449 1,-1c0,-0.551 -0.449,-1 -1,-1z" fill="#ffffff"></path><path d="M50.5,72.3c-1.648,0 -3.245,-0.332 -4.747,-0.986l-18.373,-8.006c-0.417,-0.181 -0.668,-0.55 -0.673,-0.986l-0.003,-8.883c0.036,0.008 0.075,0.021 0.117,0.04l18.373,8.005c1.68,0.732 3.465,1.103 5.306,1.103c1.842,0 3.627,-0.371 5.306,-1.103l18.374,-8.005c0.042,-0.018 0.081,-0.031 0.117,-0.04v8.643l-0.004,0.241c-0.004,0.435 -0.256,0.804 -0.673,0.985l-18.373,8.005c-1.502,0.655 -3.1,0.987 -4.747,0.987z" fill="#8889b9"></path><path d="M27.403,54.496l17.511,7.629c1.768,0.771 3.647,1.162 5.586,1.162c1.939,0 3.818,-0.391 5.586,-1.161l17.511,-7.63v7.561l-0.003,0.257c-0.002,0.162 -0.087,0.28 -0.253,0.353l-18.374,8.005c-1.413,0.616 -2.916,0.928 -4.467,0.928c-1.551,0 -3.054,-0.313 -4.467,-0.928l-18.374,-8.005c-0.166,-0.072 -0.251,-0.191 -0.253,-0.353l-0.003,-0.216v-7.602M74.373,52.729c-0.136,0 -0.294,0.029 -0.473,0.107l-18.374,8.005c-1.598,0.697 -3.312,1.045 -5.026,1.045c-1.714,0 -3.428,-0.348 -5.026,-1.045l-18.374,-8.004c-0.179,-0.078 -0.337,-0.107 -0.473,-0.107c-0.413,0 -0.624,0.271 -0.624,0.271v9.331h0.003c0.008,0.654 0.37,1.305 1.094,1.62l18.374,8.005c1.598,0.695 3.312,1.043 5.026,1.043c1.714,0 3.428,-0.348 5.026,-1.044l18.374,-8.006c0.724,-0.315 1.086,-0.966 1.094,-1.62h0.003v-9.33c0,0 -0.211,-0.271 -0.624,-0.271z" fill="#472b29"></path><path d="M67.326,63.7c-0.095,0 -0.185,-0.054 -0.227,-0.145c-0.059,-0.125 -0.004,-0.274 0.122,-0.332l4.47,-2.063c0.121,-0.058 0.273,-0.003 0.331,0.122c0.059,0.125 0.004,0.274 -0.122,0.332l-4.47,2.063c-0.033,0.015 -0.069,0.023 -0.104,0.023z" fill="#472b29"></path><g fill="#472b29"><path d="M50.5,70.249c-1.75,0 -3.5,-0.376 -5.131,-1.129c-0.125,-0.058 -0.18,-0.206 -0.122,-0.332c0.059,-0.126 0.206,-0.18 0.332,-0.122c3.127,1.443 6.714,1.443 9.843,0l9.068,-4.184c0.121,-0.058 0.272,-0.003 0.331,0.122c0.059,0.125 0.004,0.274 -0.122,0.332l-9.068,4.184c-1.63,0.753 -3.381,1.129 -5.131,1.129z"></path></g><g fill="#472b29"><path d="M42.453,67.75c-0.035,0 -0.071,-0.007 -0.105,-0.023l-8.456,-3.901c-0.125,-0.058 -0.18,-0.206 -0.122,-0.332c0.058,-0.125 0.207,-0.18 0.332,-0.122l8.456,3.901c0.125,0.058 0.18,0.206 0.122,0.332c-0.042,0.091 -0.133,0.145 -0.227,0.145z"></path></g><g fill="#472b29"><path d="M31.785,62.828c-0.035,0 -0.071,-0.007 -0.105,-0.023l-2.898,-1.337c-0.125,-0.058 -0.18,-0.206 -0.123,-0.332c0.058,-0.126 0.206,-0.18 0.332,-0.122l2.898,1.337c0.125,0.058 0.18,0.206 0.123,0.332c-0.043,0.091 -0.133,0.145 -0.227,0.145z"></path></g><g><path d="M50.5,62.942c-1.648,0 -3.246,-0.331 -4.747,-0.985l-18.374,-7.996c-0.426,-0.185 -0.68,-0.559 -0.679,-0.998c0,-0.44 0.255,-0.812 0.681,-0.997l16.146,-6.99c1.471,-0.637 3.069,-1.068 4.75,-1.281l4.534,0.005c1.593,0.208 3.191,0.639 4.662,1.276l16.146,6.99c0.427,0.185 0.682,0.557 0.682,0.997c0.001,0.44 -0.253,0.813 -0.679,0.998l-18.374,7.996c-1.502,0.653 -3.1,0.985 -4.748,0.985z" fill="#8889b9"></path><path d="M52.721,44.4c1.584,0.209 3.089,0.618 4.474,1.218l16.146,6.99c0.214,0.093 0.26,0.245 0.26,0.355c0,0.111 -0.045,0.262 -0.259,0.355l-18.374,7.997c-1.413,0.615 -2.916,0.926 -4.468,0.926c-1.552,0 -3.055,-0.312 -4.468,-0.926l-18.374,-7.997c-0.214,-0.093 -0.259,-0.245 -0.259,-0.355c0,-0.111 0.045,-0.263 0.26,-0.355l16.145,-6.99c1.385,-0.6 2.89,-1.009 4.474,-1.218h4.443M52.811,43h-4.622c-1.689,0.214 -3.355,0.647 -4.94,1.333l-16.146,6.99c-1.47,0.636 -1.472,2.64 -0.003,3.279l18.374,7.997c1.597,0.695 3.312,1.042 5.026,1.042c1.714,0 3.429,-0.348 5.026,-1.042l18.374,-7.996c1.468,-0.639 1.466,-2.643 -0.003,-3.279l-16.146,-6.99c-1.585,-0.687 -3.251,-1.12 -4.94,-1.334z" fill="#472b29"></path></g><g fill="#472b29"><path d="M56,59.099c-0.096,0 -0.187,-0.055 -0.229,-0.148c-0.056,-0.126 0.001,-0.274 0.127,-0.33l4,-1.782c0.127,-0.056 0.273,0 0.33,0.127c0.056,0.126 -0.001,0.274 -0.127,0.33l-4,1.782c-0.033,0.014 -0.067,0.021 -0.101,0.021zM62.196,56.338c-0.096,0 -0.187,-0.055 -0.229,-0.148c-0.056,-0.126 0.001,-0.274 0.127,-0.33l6.868,-3.061l0.101,-0.301l-0.102,0.229l-2.035,-0.902c-0.126,-0.056 -0.183,-0.204 -0.127,-0.33c0.056,-0.127 0.203,-0.183 0.33,-0.127l2.035,0.902c0.197,0.088 0.32,0.277 0.32,0.494c0,0.216 -0.122,0.405 -0.319,0.493l-6.868,3.061c-0.032,0.012 -0.067,0.02 -0.101,0.02zM65.511,51.172c-0.034,0 -0.068,-0.007 -0.102,-0.021l-3.783,-1.677c-0.126,-0.056 -0.183,-0.204 -0.127,-0.33c0.056,-0.127 0.203,-0.183 0.33,-0.127l3.783,1.677c0.126,0.056 0.183,0.204 0.127,0.33c-0.041,0.092 -0.133,0.148 -0.228,0.148zM60.161,48.8c-0.034,0 -0.068,-0.007 -0.102,-0.021l-2.348,-1.041c-0.126,-0.056 -0.183,-0.204 -0.127,-0.33c0.056,-0.127 0.204,-0.183 0.33,-0.127l2.348,1.041c0.126,0.056 0.183,0.204 0.127,0.33c-0.04,0.093 -0.132,0.148 -0.228,0.148z"></path></g><g><ellipse cx="36.25" cy="53" rx="2.75" ry="1.5" fill="#f4989e"></ellipse><path d="M36.25,55c-1.853,0 -3.25,-0.86 -3.25,-2c0,-1.14 1.397,-2 3.25,-2c1.853,0 3.25,0.86 3.25,2c0,1.14 -1.397,2 -3.25,2zM36.25,52c-1.374,0 -2.25,0.592 -2.25,1c0,0.408 0.876,1 2.25,1c1.374,0 2.25,-0.592 2.25,-1c0,-0.408 -0.876,-1 -2.25,-1z" fill="#472b29"></path></g><g><path d="M50.5,55.3c-1.544,0 -2.8,-1.256 -2.8,-2.8v-16.3h5.6v16.3c0,1.544 -1.256,2.8 -2.8,2.8z" fill="#edf7f5"></path><path d="M52.6,36.9v15.6c0,1.158 -0.942,2.1 -2.1,2.1c-1.158,0 -2.1,-0.942 -2.1,-2.1v-15.6h4.2M54,35.5h-7v17c0,1.933 1.567,3.5 3.5,3.5c1.933,0 3.5,-1.567 3.5,-3.5v-17z" fill="#472b29"></path></g><g><circle cx="50.5" cy="32.5" r="6.8" fill="#ee3e54"></circle><path d="M50.5,26.4c3.364,0 6.1,2.736 6.1,6.1c0,3.364 -2.736,6.1 -6.1,6.1c-3.364,0 -6.1,-2.736 -6.1,-6.1c0,-3.364 2.736,-6.1 6.1,-6.1M50.5,25c-4.142,0 -7.5,3.358 -7.5,7.5c0,4.142 3.358,7.5 7.5,7.5c4.142,0 7.5,-3.358 7.5,-7.5c0,-4.142 -3.358,-7.5 -7.5,-7.5z" fill="#472b29"></path></g><g fill="#472b29"><path d="M53.359,35.547c-0.063,0 -0.126,-0.024 -0.175,-0.071c-0.099,-0.097 -0.101,-0.255 -0.004,-0.354c0.689,-0.704 1.069,-1.635 1.069,-2.622c0,-0.845 -0.274,-1.643 -0.793,-2.306c-0.085,-0.109 -0.065,-0.266 0.043,-0.351c0.109,-0.085 0.265,-0.066 0.352,0.043c0.588,0.752 0.898,1.656 0.898,2.614c0,1.118 -0.431,2.174 -1.212,2.972c-0.048,0.05 -0.113,0.075 -0.178,0.075z"></path></g><g fill="#472b29"><path d="M48.607,29.225c-0.089,0 -0.175,-0.048 -0.22,-0.132c-0.065,-0.122 -0.02,-0.273 0.102,-0.339c1.047,-0.564 2.337,-0.657 3.454,-0.254c0.13,0.047 0.197,0.19 0.15,0.32c-0.047,0.13 -0.189,0.197 -0.32,0.15c-0.985,-0.355 -2.124,-0.273 -3.047,0.224c-0.038,0.022 -0.079,0.031 -0.119,0.031z"></path></g></g></g></svg>